<svg width="32" height="32" viewBox="0 0 32 32" fill="none" xmlns="http://www.w3.org/2000/svg">
<path fill-rule="evenodd" clip-rule="evenodd" d="M21.3333 7.59998H10.6667C8.973 7.59998 7.6 8.97297 7.6 10.6666V21.3333C7.6 23.027 8.973 24.4 10.6667 24.4H21.3333C23.027 24.4 24.4 23.027 24.4 21.3333V10.6666C24.4 8.97297 23.027 7.59998 21.3333 7.59998ZM10.6667 5.33331C7.72115 5.33331 5.33334 7.72113 5.33334 10.6666V21.3333C5.33334 24.2788 7.72115 26.6666 10.6667 26.6666H21.3333C24.2789 26.6666 26.6667 24.2788 26.6667 21.3333V10.6666C26.6667 7.72113 24.2789 5.33331 21.3333 5.33331H10.6667Z" fill="#35B34A"/>
<path fill-rule="evenodd" clip-rule="evenodd" d="M21.3333 12.9334H10.6667C8.973 12.9334 7.6 14.3063 7.6 16V21.3334C7.6 23.027 8.973 24.4 10.6667 24.4H21.3333C23.027 24.4 24.4 23.027 24.4 21.3334V16C24.4 14.3063 23.027 12.9334 21.3333 12.9334ZM10.6667 10.6667C7.72115 10.6667 5.33334 13.0545 5.33334 16V21.3334C5.33334 24.2789 7.72115 26.6667 10.6667 26.6667H21.3333C24.2789 26.6667 26.6667 24.2789 26.6667 21.3334V16C26.6667 13.0545 24.2789 10.6667 21.3333 10.6667H10.6667Z" fill="#35B34A"/>
<path fill-rule="evenodd" clip-rule="evenodd" d="M12 9.1333C11.3741 9.1333 10.8667 8.62589 10.8667 7.99997V3.99997C10.8667 3.37404 11.3741 2.86663 12 2.86663C12.6259 2.86663 13.1333 3.37404 13.1333 3.99997V7.99997C13.1333 8.62589 12.6259 9.1333 12 9.1333Z" fill="#35B34A"/>
<path fill-rule="evenodd" clip-rule="evenodd" d="M20 9.1333C19.3741 9.1333 18.8667 8.62589 18.8667 7.99997V3.99997C18.8667 3.37404 19.3741 2.86663 20 2.86663C20.6259 2.86663 21.1333 3.37404 21.1333 3.99997V7.99997C21.1333 8.62589 20.6259 9.1333 20 9.1333Z" fill="#35B34A"/>
<path d="M10.6667 17.3333C10.6667 16.597 11.2636 16 12 16H14.6667C15.403 16 16 16.597 16 17.3333V20C16 20.7364 15.403 21.3333 14.6667 21.3333H12C11.2636 21.3333 10.6667 20.7364 10.6667 20V17.3333Z" fill="#35B34A"/>
</svg>
