<svg width="32" height="32" viewBox="0 0 32 32" fill="none" xmlns="http://www.w3.org/2000/svg">
<path fill-rule="evenodd" clip-rule="evenodd" d="M16 5.1333C9.99851 5.1333 5.13334 9.99848 5.13334 16C5.13334 22.0015 9.99851 26.8666 16 26.8666C22.0015 26.8666 26.8667 22.0015 26.8667 16C26.8667 9.99848 22.0015 5.1333 16 5.1333ZM2.86667 16C2.86667 8.74663 8.74666 2.86664 16 2.86664C23.2533 2.86664 29.1333 8.74663 29.1333 16C29.1333 23.2533 23.2533 29.1333 16 29.1333C8.74666 29.1333 2.86667 23.2533 2.86667 16Z" fill="#35B34A"/>
<path fill-rule="evenodd" clip-rule="evenodd" d="M9.86528 13.8653C10.3079 13.4227 11.0255 13.4227 11.4681 13.8653L15.8586 18.2558C15.9367 18.3339 16.0633 18.3339 16.1414 18.2558L20.5319 13.8653C20.9745 13.4227 21.6921 13.4227 22.1347 13.8653C22.5773 14.3079 22.5773 15.0255 22.1347 15.468L17.7442 19.8586C16.7809 20.8219 15.2191 20.8219 14.2558 19.8586L9.86528 15.468C9.42269 15.0255 9.42269 14.3079 9.86528 13.8653Z" fill="#35B34A"/>
</svg>
