<svg width="40" height="41" viewBox="0 0 40 41" fill="none" xmlns="http://www.w3.org/2000/svg">
<path d="M33.3333 12.1667H31.3183C31.5628 11.3563 31.6803 10.513 31.6666 9.66666C31.6666 6.45 29.05 3.83333 25.8333 3.83333C23.13 3.83333 21.325 6.30333 20.16 8.975C19.0116 6.45 17.115 3.83333 14.1666 3.83333C10.95 3.83333 8.33331 6.45 8.33331 9.66666C8.33331 10.66 8.46498 11.4817 8.68165 12.1667H6.66665C4.82831 12.1667 3.33331 13.6617 3.33331 15.5V18.8333C3.33331 20.6717 4.82831 22.1667 6.66665 22.1667V33.8333C6.66665 35.6717 8.16165 37.1667 9.99998 37.1667H30C31.8383 37.1667 33.3333 35.6717 33.3333 33.8333V22.1667C35.1716 22.1667 36.6666 20.6717 36.6666 18.8333V15.5C36.6666 13.6617 35.1716 12.1667 33.3333 12.1667ZM25.8333 7.16666C27.2116 7.16666 28.3333 8.28833 28.3333 9.66666C28.3333 12.1667 27.29 12.1667 26.6666 12.1667H22.5366C23.3883 9.54 24.625 7.16666 25.8333 7.16666ZM11.6666 9.66666C11.6666 8.28833 12.7883 7.16666 14.1666 7.16666C15.6466 7.16666 17.0233 9.70833 17.83 12.1667H13.3333C12.71 12.1667 11.6666 12.1667 11.6666 9.66666ZM6.66665 15.5H18.3333V18.8333H6.66665V15.5ZM9.99998 33.8333V22.1667H18.3333V33.8333H9.99998ZM30 33.8333H21.6666V22.1667H30V33.8333ZM21.6666 18.8333V15.6417L21.695 15.5H33.3333L33.335 18.8333H21.6666Z" fill="#35B34A"/>
</svg>
