<svg width="32" height="32" viewBox="0 0 32 32" fill="none" xmlns="http://www.w3.org/2000/svg">
<path fill-rule="evenodd" clip-rule="evenodd" d="M16 5.1333C11.4713 5.1333 7.8 8.80457 7.8 13.3333C7.8 15.6661 8.76671 18.9688 10.3758 21.6893C11.1745 23.0397 12.0991 24.1905 13.0829 24.9921C14.0656 25.7927 15.0484 26.2 16 26.2C16.9516 26.2 17.9344 25.7927 18.9171 24.9921C19.9009 24.1905 20.8255 23.0397 21.6242 21.6893C23.2333 18.9688 24.2 15.6661 24.2 13.3333C24.2 8.80457 20.5287 5.1333 16 5.1333ZM5.53333 13.3333C5.53333 7.55272 10.2194 2.86664 16 2.86664C21.7806 2.86664 26.4667 7.55272 26.4667 13.3333C26.4667 16.1552 25.344 19.8525 23.5751 22.8433C22.6848 24.3486 21.5983 25.7313 20.3488 26.7493C19.0983 27.7682 17.6257 28.4666 16 28.4666C14.3743 28.4666 12.9017 27.7682 11.6512 26.7493C10.4017 25.7313 9.31517 24.3486 8.42485 22.8433C6.65596 19.8525 5.53333 16.1552 5.53333 13.3333Z" fill="#35B34A"/>
<path fill-rule="evenodd" clip-rule="evenodd" d="M16 10.4667C14.4168 10.4667 13.1333 11.7501 13.1333 13.3333C13.1333 14.9166 14.4168 16.2 16 16.2C17.5832 16.2 18.8667 14.9166 18.8667 13.3333C18.8667 11.7501 17.5832 10.4667 16 10.4667ZM10.8667 13.3333C10.8667 10.4983 13.1649 8.20001 16 8.20001C18.8351 8.20001 21.1333 10.4983 21.1333 13.3333C21.1333 16.1684 18.8351 18.4667 16 18.4667C13.1649 18.4667 10.8667 16.1684 10.8667 13.3333Z" fill="#35B34A"/>
</svg>
