<svg width="28" height="28" viewBox="0 0 28 28" fill="none" xmlns="http://www.w3.org/2000/svg">
<path d="M15.1666 8.1665H12.8333V12.8332H8.16663V15.1665H12.8333V19.8332H15.1666V15.1665H19.8333V12.8332H15.1666V8.1665Z" fill="#35B34A"/>
<path d="M14 2.3335C7.56704 2.3335 2.33337 7.56716 2.33337 14.0002C2.33337 20.4332 7.56704 25.6668 14 25.6668C20.433 25.6668 25.6667 20.4332 25.6667 14.0002C25.6667 7.56716 20.433 2.3335 14 2.3335ZM14 23.3335C8.85387 23.3335 4.66671 19.1463 4.66671 14.0002C4.66671 8.854 8.85387 4.66683 14 4.66683C19.1462 4.66683 23.3334 8.854 23.3334 14.0002C23.3334 19.1463 19.1462 23.3335 14 23.3335Z" fill="#35B34A"/>
</svg>
