<svg width="32" height="32" viewBox="0 0 32 32" fill="none" xmlns="http://www.w3.org/2000/svg">
<path fill-rule="evenodd" clip-rule="evenodd" d="M4.2 12C4.2 8.42855 7.09523 5.53333 10.6667 5.53333H21.3333C24.9048 5.53333 27.8 8.42855 27.8 12V20C27.8 23.5714 24.9048 26.4667 21.3333 26.4667H10.6667C7.09523 26.4667 4.2 23.5714 4.2 20V12ZM10.6667 7.79999C8.34707 7.79999 6.46667 9.6804 6.46667 12V20C6.46667 22.3196 8.34707 24.2 10.6667 24.2H21.3333C23.6529 24.2 25.5333 22.3196 25.5333 20V12C25.5333 9.6804 23.6529 7.79999 21.3333 7.79999H10.6667Z" fill="#35B34A"/>
<path d="M24 16C24 16.7364 23.403 17.3334 22.6667 17.3334C21.9303 17.3334 21.3333 16.7364 21.3333 16C21.3333 15.2636 21.9303 14.6667 22.6667 14.6667C23.403 14.6667 24 15.2636 24 16Z" fill="#35B34A"/>
<path fill-rule="evenodd" clip-rule="evenodd" d="M17.5333 14.6666C17.5333 12.568 19.2347 10.8666 21.3333 10.8666H26.6667C27.2926 10.8666 27.8 11.374 27.8 12V20C27.8 20.6259 27.2926 21.1333 26.6667 21.1333H21.3333C19.2347 21.1333 17.5333 19.432 17.5333 17.3333V14.6666ZM21.3333 13.1333C20.4865 13.1333 19.8 13.8198 19.8 14.6666V17.3333C19.8 18.1801 20.4865 18.8666 21.3333 18.8666H25.5333V13.1333H21.3333Z" fill="#35B34A"/>
</svg>
