<svg width="72" height="72" viewBox="0 0 72 72" fill="none" xmlns="http://www.w3.org/2000/svg">
<rect width="72" height="72" rx="16" fill="white"/>
<g clip-path="url(#clip0_36_1393)">
<path d="M17.3417 40.1504C17.3362 40.1011 17.3333 40.0509 17.3333 40.0001V29.0173C17.3333 26.6361 18.9119 24.5434 21.2015 23.8892L42.9011 17.6893C43.2585 17.5872 43.6283 17.5354 44 17.5354C46.2091 17.5354 48 19.3263 48 21.5354V26.6668H49.3333C52.2789 26.6668 54.6667 29.0546 54.6667 32.0001V49.3335C54.6667 52.279 52.2789 54.6668 49.3333 54.6668H32C31.9492 54.6668 31.8991 54.6639 31.8497 54.6584C30.3152 55.5132 28.5478 56.0001 26.6667 56.0001C20.7756 56.0001 16 51.2245 16 45.3335C16 43.4523 16.487 41.6849 17.3417 40.1504ZM20 37.0063C21.8261 35.5424 24.1441 34.6668 26.6667 34.6668C32.5577 34.6668 37.3333 39.4424 37.3333 45.3335C37.3333 47.856 36.4577 50.174 34.9938 52.0001H49.3333C50.8061 52.0001 52 50.8062 52 49.3335V32.0001C52 30.5274 50.8061 29.3335 49.3333 29.3335H22.6667C21.1939 29.3335 20 30.5274 20 32.0001V37.0063ZM21.0065 26.9302C21.529 26.7592 22.087 26.6668 22.6667 26.6668H45.3333V21.5354C45.3333 20.799 44.7364 20.2021 44 20.2021C43.8761 20.2021 43.7528 20.2193 43.6337 20.2534L21.9341 26.4533C21.5885 26.552 21.2754 26.7163 21.0065 26.9302ZM26.6667 53.3335C31.0849 53.3335 34.6667 49.7517 34.6667 45.3335C34.6667 40.9152 31.0849 37.3335 26.6667 37.3335C22.2484 37.3335 18.6667 40.9152 18.6667 45.3335C18.6667 49.7517 22.2484 53.3335 26.6667 53.3335ZM25.9104 46.0249L28.309 43.1465C28.7805 42.5808 29.6212 42.5044 30.1869 42.9758C30.7526 43.4472 30.829 44.288 30.3576 44.8537L27.1178 48.7415C27.0744 48.792 27.0744 48.792 27.0281 48.8397C26.4554 49.4125 25.5267 49.4125 24.954 48.8397L23.0572 46.9429C22.5365 46.4222 22.5365 45.578 23.0572 45.0573C23.5779 44.5366 24.4221 44.5366 24.9428 45.0573L25.9104 46.0249ZM46.6667 42.6668C45.1939 42.6668 44 41.4729 44 40.0001C44 38.5274 45.1939 37.3335 46.6667 37.3335C48.1394 37.3335 49.3333 38.5274 49.3333 40.0001C49.3333 41.4729 48.1394 42.6668 46.6667 42.6668Z" fill="#35B34A"/>
</g>
<defs>
<clipPath id="clip0_36_1393">
<rect width="40" height="40" fill="white" transform="translate(16 16)"/>
</clipPath>
</defs>
</svg>
