<svg width="72" height="72" viewBox="0 0 72 72" fill="none" xmlns="http://www.w3.org/2000/svg">
<rect width="72" height="72" rx="16" fill="white"/>
<g clip-path="url(#clip0_36_1387)">
<path d="M46.6667 31.3336V52.7943C46.6667 53.7147 45.9205 54.4609 45 54.4609C44.7413 54.4609 44.4861 54.4007 44.2547 54.285L40.0958 52.2056L37.1094 54.1965C36.4376 54.6443 35.5624 54.6443 34.8906 54.1965L32 52.2694L29.1094 54.1965C28.4376 54.6443 27.5624 54.6443 26.8906 54.1965L23.9042 52.2056L19.7454 54.285C18.9221 54.6966 17.921 54.3629 17.5093 53.5396C17.3936 53.3082 17.3334 53.053 17.3334 52.7943V22.667C17.3334 19.7214 19.7212 17.3336 22.6667 17.3336H49.3334C52.2789 17.3336 54.6667 19.7214 54.6667 22.667V26.0003C54.6667 28.9458 52.2789 31.3336 49.3334 31.3336H46.6667ZM44 22.667C44 21.6955 44.2598 20.7847 44.7135 20.0003H22.6667C21.1939 20.0003 20 21.1942 20 22.667V51.1762L23.0577 49.6474C23.6997 49.3264 24.4644 49.374 25.0615 49.7722L28 51.7311L30.8906 49.8041C31.5624 49.3562 32.4376 49.3562 33.1094 49.8041L36 51.7311L38.9385 49.7722C39.5357 49.374 40.3004 49.3264 40.9424 49.6474L44 51.1762V22.667ZM46.6667 28.667H49.3334C50.8061 28.667 52 27.473 52 26.0003V22.667C52 21.1942 50.8061 20.0003 49.3334 20.0003C47.8606 20.0003 46.6667 21.1942 46.6667 22.667V28.667ZM28.9428 33.0575L29.9491 34.0637L35.009 28.4417C35.5016 27.8943 36.3446 27.8499 36.892 28.3426C37.4393 28.8352 37.4837 29.6782 36.9911 30.2256L31.0851 36.7878C31.0591 36.8162 31.0591 36.8162 31.032 36.8437C30.4593 37.4165 29.5306 37.4165 28.9579 36.8437L27.0572 34.9431C26.5365 34.4224 26.5365 33.5782 27.0572 33.0575C27.5779 32.5368 28.4221 32.5368 28.9428 33.0575Z" fill="#35B34A"/>
</g>
<defs>
<clipPath id="clip0_36_1387">
<rect width="40" height="40" fill="white" transform="translate(16 16)"/>
</clipPath>
</defs>
</svg>
