<svg width="72" height="72" viewBox="0 0 72 72" fill="none" xmlns="http://www.w3.org/2000/svg">
<rect width="72" height="72" rx="16" fill="white"/>
<g clip-path="url(#clip0_36_1390)">
<path d="M52.928 39.7453C53.196 38.5267 53.3333 37.2733 53.3333 36C53.3333 26.4267 45.5733 18.6667 36 18.6667C26.4267 18.6667 18.6667 26.4267 18.6667 36C18.6667 45.5733 26.4267 53.3333 36 53.3333C37.2733 53.3333 38.5267 53.196 39.7453 52.928C38.1395 51.1522 37.2776 48.8271 37.3378 46.4337C37.3979 44.0402 38.3755 41.7614 40.0685 40.0685C41.7614 38.3755 44.0402 37.3979 46.4337 37.3378C48.8271 37.2776 51.1522 38.1395 52.928 39.7453ZM42.3813 54.96C40.3413 55.6453 38.1947 56 36 56C24.9547 56 16 47.0453 16 36C16 24.9547 24.9547 16 36 16C47.0453 16 56 24.9547 56 36C56 38.1947 55.6467 40.3427 54.96 42.3813C55.8704 44.1408 56.1974 46.1442 55.8937 48.1018C55.5899 50.0594 54.6712 51.8696 53.2704 53.2704C51.8696 54.6712 50.0594 55.5899 48.1018 55.8937C46.1442 56.1974 44.1408 55.8704 42.3813 54.96ZM46.6667 53.3333C48.4348 53.3333 50.1305 52.631 51.3807 51.3807C52.631 50.1305 53.3333 48.4348 53.3333 46.6667C53.3333 44.8986 52.631 43.2029 51.3807 41.9526C50.1305 40.7024 48.4348 40 46.6667 40C44.8986 40 43.2029 40.7024 41.9526 41.9526C40.7024 43.2029 40 44.8986 40 46.6667C40 48.4348 40.7024 50.1305 41.9526 51.3807C43.2029 52.631 44.8986 53.3333 46.6667 53.3333ZM44.9427 46.3907L45.9107 47.3587L48.3093 44.4787C48.4215 44.3442 48.559 44.2331 48.7141 44.1518C48.8692 44.0705 49.0387 44.0205 49.2131 44.0047C49.3875 43.9889 49.5633 44.0077 49.7305 44.0598C49.8976 44.112 50.0529 44.1965 50.1873 44.3087C50.3218 44.4208 50.4329 44.5584 50.5142 44.7134C50.5955 44.8685 50.6455 45.0381 50.6613 45.2125C50.6771 45.3868 50.6584 45.5626 50.6062 45.7298C50.554 45.8969 50.4695 46.0522 50.3573 46.1867L47.4907 49.6267C47.432 49.6947 47.432 49.6947 47.3707 49.76C47.1849 49.9459 46.9644 50.0933 46.7217 50.1939C46.4789 50.2945 46.2188 50.3462 45.956 50.3462C45.6932 50.3462 45.4331 50.2945 45.1903 50.1939C44.9476 50.0933 44.7271 49.9459 44.5413 49.76L43.0573 48.276C42.8145 48.0245 42.6801 47.6877 42.6831 47.3381C42.6861 46.9885 42.8264 46.6541 43.0736 46.4069C43.3208 46.1597 43.6552 46.0195 44.0048 46.0164C44.3544 46.0134 44.6912 46.1478 44.9427 46.3907ZM32.8333 31.48C32.8331 31.277 32.8878 31.0778 32.9915 30.9033C33.0952 30.7288 33.2441 30.5856 33.4225 30.4887C33.6008 30.3919 33.8021 30.345 34.0049 30.3531C34.2077 30.3612 34.4046 30.4239 34.5747 30.5347L41.42 34.984C41.5777 35.0862 41.7073 35.2263 41.797 35.3914C41.8867 35.5565 41.9337 35.7414 41.9337 35.9293C41.9337 36.1172 41.8867 36.3022 41.797 36.4673C41.7073 36.6324 41.5777 36.7724 41.42 36.8747L34.5747 41.324C34.4046 41.4347 34.2077 41.4975 34.0049 41.5055C33.8021 41.5136 33.6008 41.4668 33.4225 41.3699C33.2441 41.2731 33.0952 41.1299 32.9915 40.9554C32.8878 40.7809 32.8331 40.5816 32.8333 40.3787V31.48Z" fill="#35B34A"/>
</g>
<defs>
<clipPath id="clip0_36_1390">
<rect width="40" height="40" fill="white" transform="translate(16 16)"/>
</clipPath>
</defs>
</svg>
