<svg width="164" height="40" viewBox="0 0 164 40" fill="none" xmlns="http://www.w3.org/2000/svg">
<path d="M13.296 11.2C13.472 11.2 13.624 11.264 13.752 11.392C13.88 11.52 13.944 11.672 13.944 11.848V14.392C13.944 14.568 13.88 14.72 13.752 14.848C13.624 14.976 13.472 15.04 13.296 15.04H6.12V18.328H12.816C12.992 18.328 13.144 18.392 13.272 18.52C13.4 18.648 13.464 18.8 13.464 18.976V21.52C13.464 21.696 13.4 21.848 13.272 21.976C13.144 22.104 12.992 22.168 12.816 22.168H6.12V27.352C6.12 27.528 6.056 27.68 5.928 27.808C5.8 27.936 5.648 28 5.472 28H2.328C2.152 28 2 27.936 1.872 27.808C1.744 27.68 1.68 27.528 1.68 27.352V11.848C1.68 11.672 1.744 11.52 1.872 11.392C2 11.264 2.152 11.2 2.328 11.2H13.296ZM24.1553 15.52C24.3313 15.52 24.4833 15.584 24.6113 15.712C24.7393 15.84 24.8033 15.992 24.8033 16.168V18.592C24.8033 18.768 24.7393 18.92 24.6113 19.048C24.4833 19.176 24.3313 19.24 24.1553 19.24H21.9713C20.4993 19.24 19.7633 19.976 19.7633 21.448V27.352C19.7633 27.528 19.6993 27.68 19.5713 27.808C19.4433 27.936 19.2913 28 19.1153 28H16.0913C15.9153 28 15.7633 27.936 15.6353 27.808C15.5073 27.68 15.4433 27.528 15.4433 27.352V16.168C15.4433 15.992 15.5073 15.84 15.6353 15.712C15.7633 15.584 15.9153 15.52 16.0913 15.52H18.8753C19.0513 15.52 19.2033 15.584 19.3313 15.712C19.4593 15.84 19.5233 15.992 19.5233 16.168V16.72C19.8913 16.368 20.3313 16.08 20.8433 15.856C21.3713 15.632 21.9953 15.52 22.7153 15.52H24.1553ZM29.6057 23.128C29.6057 23.496 29.6697 23.8 29.7977 24.04C29.9417 24.28 30.1177 24.472 30.3257 24.616C30.5337 24.76 30.7657 24.864 31.0217 24.928C31.2777 24.976 31.5257 25 31.7657 25C32.2457 25 32.6217 24.952 32.8937 24.856C33.1817 24.76 33.4217 24.624 33.6137 24.448C33.7897 24.304 33.9177 24.216 33.9977 24.184C34.0777 24.136 34.2137 24.112 34.4057 24.112H37.5257C37.8777 24.112 38.0537 24.288 38.0537 24.64C38.0537 24.832 37.9337 25.128 37.6937 25.528C37.4537 25.912 37.0777 26.312 36.5657 26.728C36.0697 27.128 35.4217 27.48 34.6217 27.784C33.8217 28.088 32.8697 28.24 31.7657 28.24C30.7257 28.24 29.7977 28.096 28.9817 27.808C28.1817 27.504 27.5017 27.072 26.9417 26.512C26.3977 25.952 25.9817 25.272 25.6937 24.472C25.4217 23.672 25.2857 22.768 25.2857 21.76C25.2857 20.832 25.4217 19.976 25.6937 19.192C25.9817 18.392 26.3977 17.704 26.9417 17.128C27.5017 16.552 28.1817 16.104 28.9817 15.784C29.7977 15.448 30.7257 15.28 31.7657 15.28C32.9337 15.28 33.9257 15.48 34.7417 15.88C35.5737 16.264 36.2457 16.768 36.7577 17.392C37.2857 18.016 37.6617 18.72 37.8857 19.504C38.1257 20.272 38.2457 21.04 38.2457 21.808V22.48C38.2457 22.656 38.1817 22.808 38.0537 22.936C37.9257 23.064 37.7737 23.128 37.5977 23.128H29.6057ZM31.7657 18.52C31.0937 18.52 30.5817 18.72 30.2297 19.12C29.8777 19.52 29.6697 19.968 29.6057 20.464H33.9257C33.8617 19.968 33.6537 19.52 33.3017 19.12C32.9497 18.72 32.4377 18.52 31.7657 18.52ZM43.7038 23.128C43.7038 23.496 43.7678 23.8 43.8958 24.04C44.0398 24.28 44.2158 24.472 44.4238 24.616C44.6318 24.76 44.8638 24.864 45.1198 24.928C45.3758 24.976 45.6238 25 45.8638 25C46.3438 25 46.7198 24.952 46.9918 24.856C47.2798 24.76 47.5198 24.624 47.7118 24.448C47.8878 24.304 48.0158 24.216 48.0958 24.184C48.1758 24.136 48.3118 24.112 48.5038 24.112H51.6238C51.9758 24.112 52.1518 24.288 52.1518 24.64C52.1518 24.832 52.0318 25.128 51.7918 25.528C51.5518 25.912 51.1758 26.312 50.6638 26.728C50.1678 27.128 49.5198 27.48 48.7198 27.784C47.9198 28.088 46.9678 28.24 45.8638 28.24C44.8238 28.24 43.8958 28.096 43.0798 27.808C42.2798 27.504 41.5998 27.072 41.0398 26.512C40.4958 25.952 40.0798 25.272 39.7918 24.472C39.5198 23.672 39.3838 22.768 39.3838 21.76C39.3838 20.832 39.5198 19.976 39.7918 19.192C40.0798 18.392 40.4958 17.704 41.0398 17.128C41.5998 16.552 42.2798 16.104 43.0798 15.784C43.8958 15.448 44.8238 15.28 45.8638 15.28C47.0318 15.28 48.0238 15.48 48.8398 15.88C49.6718 16.264 50.3438 16.768 50.8558 17.392C51.3838 18.016 51.7598 18.72 51.9838 19.504C52.2238 20.272 52.3438 21.04 52.3438 21.808V22.48C52.3438 22.656 52.2798 22.808 52.1518 22.936C52.0238 23.064 51.8718 23.128 51.6958 23.128H43.7038ZM45.8638 18.52C45.1918 18.52 44.6798 18.72 44.3278 19.12C43.9758 19.52 43.7678 19.968 43.7038 20.464H48.0238C47.9598 19.968 47.7518 19.52 47.3998 19.12C47.0478 18.72 46.5358 18.52 45.8638 18.52ZM58.3779 27.352C58.3779 27.528 58.3139 27.68 58.1859 27.808C58.0579 27.936 57.9059 28 57.7299 28H54.7059C54.5299 28 54.3779 27.936 54.2499 27.808C54.1219 27.68 54.0579 27.528 54.0579 27.352V11.608C54.0579 11.432 54.1219 11.28 54.2499 11.152C54.3779 11.024 54.5299 10.96 54.7059 10.96H57.7299C57.9059 10.96 58.0579 11.024 58.1859 11.152C58.3139 11.28 58.3779 11.432 58.3779 11.608V27.352ZM59.8635 24.448C59.8635 23.392 60.2635 22.52 61.0635 21.832C61.8795 21.144 63.1995 20.64 65.0235 20.32L67.8315 19.84C67.8315 19.456 67.7275 19.144 67.5195 18.904C67.3115 18.648 66.9515 18.52 66.4395 18.52C66.0715 18.52 65.7835 18.576 65.5755 18.688C65.3835 18.784 65.2395 18.872 65.1435 18.952C64.9995 19.08 64.8635 19.16 64.7355 19.192C64.6075 19.224 64.4555 19.24 64.2795 19.24H61.2315C61.0715 19.24 60.9355 19.192 60.8235 19.096C60.7275 19 60.6875 18.872 60.7035 18.712C60.7355 18.344 60.8955 17.96 61.1835 17.56C61.4715 17.16 61.8635 16.792 62.3595 16.456C62.8715 16.12 63.4715 15.84 64.1595 15.616C64.8635 15.392 65.6235 15.28 66.4395 15.28C67.4155 15.28 68.2635 15.4 68.9835 15.64C69.7035 15.88 70.2955 16.216 70.7595 16.648C71.2395 17.064 71.5915 17.568 71.8155 18.16C72.0395 18.736 72.1515 19.376 72.1515 20.08V27.352C72.1515 27.528 72.0875 27.68 71.9595 27.808C71.8315 27.936 71.6795 28 71.5035 28H68.4795C68.3035 28 68.1515 27.936 68.0235 27.808C67.8955 27.68 67.8315 27.528 67.8315 27.352V26.68C67.4475 27.16 66.9675 27.544 66.3915 27.832C65.8315 28.104 65.0875 28.24 64.1595 28.24C63.4715 28.24 62.8555 28.144 62.3115 27.952C61.7835 27.76 61.3355 27.496 60.9675 27.16C60.6155 26.824 60.3435 26.424 60.1515 25.96C59.9595 25.496 59.8635 24.992 59.8635 24.448ZM65.3355 25C65.6875 25 66.0155 24.944 66.3195 24.832C66.6235 24.704 66.8875 24.536 67.1115 24.328C67.3355 24.12 67.5115 23.88 67.6395 23.608C67.7675 23.32 67.8315 23.016 67.8315 22.696L65.6235 23.032C65.1915 23.112 64.8395 23.248 64.5675 23.44C64.3115 23.632 64.1835 23.88 64.1835 24.184C64.1835 24.488 64.2795 24.704 64.4715 24.832C64.6795 24.944 64.9675 25 65.3355 25ZM87.1243 27.352C87.1243 27.528 87.0603 27.68 86.9323 27.808C86.8043 27.936 86.6523 28 86.4763 28H83.4523C83.2763 28 83.1243 27.936 82.9963 27.808C82.8683 27.68 82.8043 27.528 82.8043 27.352V21.28C82.8043 20.592 82.6363 20.04 82.3003 19.624C81.9643 19.208 81.4363 19 80.7163 19C79.9963 19 79.4683 19.208 79.1323 19.624C78.8123 20.04 78.6523 20.592 78.6523 21.28V27.352C78.6523 27.528 78.5883 27.68 78.4603 27.808C78.3323 27.936 78.1803 28 78.0043 28H74.9803C74.8043 28 74.6523 27.936 74.5243 27.808C74.3963 27.68 74.3323 27.528 74.3323 27.352V16.168C74.3323 15.992 74.3963 15.84 74.5243 15.712C74.6523 15.584 74.8043 15.52 74.9803 15.52H77.8843C78.0603 15.52 78.2123 15.584 78.3403 15.712C78.4683 15.84 78.5323 15.992 78.5323 16.168V16.72C78.6603 16.56 78.8203 16.392 79.0123 16.216C79.2043 16.04 79.4363 15.888 79.7083 15.76C79.9803 15.616 80.2923 15.504 80.6443 15.424C81.0123 15.328 81.4363 15.28 81.9163 15.28C82.6843 15.28 83.3883 15.392 84.0283 15.616C84.6683 15.824 85.2123 16.152 85.6603 16.6C86.1243 17.048 86.4843 17.616 86.7403 18.304C86.9963 18.992 87.1243 19.808 87.1243 20.752V27.352ZM93.1136 20.92C93.0816 21.16 93.0656 21.44 93.0656 21.76C93.0656 22.08 93.0816 22.36 93.1136 22.6C93.1616 23.176 93.3776 23.64 93.7616 23.992C94.1456 24.344 94.6576 24.52 95.2976 24.52C95.8256 24.52 96.2256 24.448 96.4976 24.304C96.7856 24.144 97.0176 23.928 97.1936 23.656C97.2736 23.528 97.3616 23.416 97.4576 23.32C97.5696 23.224 97.7136 23.176 97.8896 23.176H101.034C101.21 23.176 101.362 23.24 101.49 23.368C101.634 23.496 101.698 23.648 101.682 23.824C101.666 24.08 101.562 24.456 101.37 24.952C101.178 25.448 100.842 25.944 100.362 26.44C99.8816 26.92 99.2336 27.344 98.4176 27.712C97.6016 28.064 96.5616 28.24 95.2976 28.24C94.4016 28.24 93.5616 28.112 92.7776 27.856C92.0096 27.6 91.3296 27.232 90.7376 26.752C90.1616 26.272 89.6976 25.696 89.3456 25.024C89.0096 24.336 88.8256 23.568 88.7936 22.72C88.7776 22.48 88.7696 22.16 88.7696 21.76C88.7696 21.36 88.7776 21.04 88.7936 20.8C88.8256 19.952 89.0096 19.192 89.3456 18.52C89.6976 17.832 90.1616 17.248 90.7376 16.768C91.3296 16.288 92.0096 15.92 92.7776 15.664C93.5616 15.408 94.4016 15.28 95.2976 15.28C96.5616 15.28 97.6016 15.464 98.4176 15.832C99.2336 16.184 99.8816 16.608 100.362 17.104C100.842 17.584 101.178 18.072 101.37 18.568C101.562 19.064 101.666 19.44 101.682 19.696C101.698 19.872 101.634 20.024 101.49 20.152C101.362 20.28 101.21 20.344 101.034 20.344H97.8896C97.7136 20.344 97.5696 20.296 97.4576 20.2C97.3616 20.104 97.2736 19.992 97.1936 19.864C97.0176 19.592 96.7856 19.384 96.4976 19.24C96.2256 19.08 95.8256 19 95.2976 19C94.6576 19 94.1456 19.176 93.7616 19.528C93.3776 19.88 93.1616 20.344 93.1136 20.92ZM106.999 23.128C106.999 23.496 107.063 23.8 107.191 24.04C107.335 24.28 107.511 24.472 107.719 24.616C107.927 24.76 108.159 24.864 108.415 24.928C108.671 24.976 108.919 25 109.159 25C109.639 25 110.015 24.952 110.287 24.856C110.575 24.76 110.815 24.624 111.007 24.448C111.183 24.304 111.311 24.216 111.391 24.184C111.471 24.136 111.607 24.112 111.799 24.112H114.919C115.271 24.112 115.447 24.288 115.447 24.64C115.447 24.832 115.327 25.128 115.087 25.528C114.847 25.912 114.471 26.312 113.959 26.728C113.463 27.128 112.815 27.48 112.015 27.784C111.215 28.088 110.263 28.24 109.159 28.24C108.119 28.24 107.191 28.096 106.375 27.808C105.575 27.504 104.895 27.072 104.335 26.512C103.791 25.952 103.375 25.272 103.087 24.472C102.815 23.672 102.679 22.768 102.679 21.76C102.679 20.832 102.815 19.976 103.087 19.192C103.375 18.392 103.791 17.704 104.335 17.128C104.895 16.552 105.575 16.104 106.375 15.784C107.191 15.448 108.119 15.28 109.159 15.28C110.327 15.28 111.319 15.48 112.135 15.88C112.967 16.264 113.639 16.768 114.151 17.392C114.679 18.016 115.055 18.72 115.279 19.504C115.519 20.272 115.639 21.04 115.639 21.808V22.48C115.639 22.656 115.575 22.808 115.447 22.936C115.319 23.064 115.167 23.128 114.991 23.128H106.999ZM109.159 18.52C108.487 18.52 107.975 18.72 107.623 19.12C107.271 19.52 107.063 19.968 106.999 20.464H111.319C111.255 19.968 111.047 19.52 110.695 19.12C110.343 18.72 109.831 18.52 109.159 18.52Z" fill="#35B34A"/>
<path d="M125.225 23.968C124.985 23.968 124.793 23.904 124.649 23.776C124.521 23.632 124.417 23.496 124.337 23.368L122.081 19.408V27.352C122.081 27.528 122.017 27.68 121.889 27.808C121.761 27.936 121.609 28 121.433 28H118.289C118.113 28 117.961 27.936 117.833 27.808C117.705 27.68 117.641 27.528 117.641 27.352V11.848C117.641 11.672 117.705 11.52 117.833 11.392C117.961 11.264 118.113 11.2 118.289 11.2H121.073C121.393 11.2 121.633 11.288 121.793 11.464C121.953 11.64 122.057 11.768 122.105 11.848L125.993 18.496L129.881 11.848C129.929 11.768 130.033 11.64 130.193 11.464C130.353 11.288 130.593 11.2 130.913 11.2H133.697C133.873 11.2 134.025 11.264 134.153 11.392C134.281 11.52 134.345 11.672 134.345 11.848V27.352C134.345 27.528 134.281 27.68 134.153 27.808C134.025 27.936 133.873 28 133.697 28H130.553C130.377 28 130.225 27.936 130.097 27.808C129.969 27.68 129.905 27.528 129.905 27.352V19.408L127.649 23.368C127.569 23.496 127.457 23.632 127.313 23.776C127.185 23.904 127.001 23.968 126.761 23.968H125.225ZM136.12 24.448C136.12 23.392 136.52 22.52 137.32 21.832C138.136 21.144 139.456 20.64 141.28 20.32L144.088 19.84C144.088 19.456 143.984 19.144 143.776 18.904C143.568 18.648 143.208 18.52 142.696 18.52C142.328 18.52 142.04 18.576 141.832 18.688C141.64 18.784 141.496 18.872 141.4 18.952C141.256 19.08 141.12 19.16 140.992 19.192C140.864 19.224 140.712 19.24 140.536 19.24H137.488C137.328 19.24 137.192 19.192 137.08 19.096C136.984 19 136.944 18.872 136.96 18.712C136.992 18.344 137.152 17.96 137.44 17.56C137.728 17.16 138.12 16.792 138.616 16.456C139.128 16.12 139.728 15.84 140.416 15.616C141.12 15.392 141.88 15.28 142.696 15.28C143.672 15.28 144.52 15.4 145.24 15.64C145.96 15.88 146.552 16.216 147.016 16.648C147.496 17.064 147.848 17.568 148.072 18.16C148.296 18.736 148.408 19.376 148.408 20.08V27.352C148.408 27.528 148.344 27.68 148.216 27.808C148.088 27.936 147.936 28 147.76 28H144.736C144.56 28 144.408 27.936 144.28 27.808C144.152 27.68 144.088 27.528 144.088 27.352V26.68C143.704 27.16 143.224 27.544 142.648 27.832C142.088 28.104 141.344 28.24 140.416 28.24C139.728 28.24 139.112 28.144 138.568 27.952C138.04 27.76 137.592 27.496 137.224 27.16C136.872 26.824 136.6 26.424 136.408 25.96C136.216 25.496 136.12 24.992 136.12 24.448ZM141.592 25C141.944 25 142.272 24.944 142.576 24.832C142.88 24.704 143.144 24.536 143.368 24.328C143.592 24.12 143.768 23.88 143.896 23.608C144.024 23.32 144.088 23.016 144.088 22.696L141.88 23.032C141.448 23.112 141.096 23.248 140.824 23.44C140.568 23.632 140.44 23.88 140.44 24.184C140.44 24.488 140.536 24.704 140.728 24.832C140.936 24.944 141.224 25 141.592 25ZM159.277 21.76L163.477 27.112C163.541 27.208 163.573 27.32 163.573 27.448C163.573 27.592 163.517 27.72 163.405 27.832C163.293 27.944 163.157 28 162.997 28H159.325C159.117 28 158.949 27.944 158.821 27.832C158.709 27.72 158.621 27.624 158.557 27.544L156.565 25.024L154.597 27.544C154.533 27.624 154.437 27.72 154.309 27.832C154.197 27.944 154.037 28 153.829 28H150.157C149.997 28 149.861 27.944 149.749 27.832C149.637 27.72 149.581 27.592 149.581 27.448C149.581 27.32 149.613 27.208 149.677 27.112L153.925 21.664L149.797 16.408C149.733 16.312 149.701 16.2 149.701 16.072C149.701 15.928 149.757 15.8 149.869 15.688C149.981 15.576 150.117 15.52 150.277 15.52H153.997C154.205 15.52 154.365 15.576 154.477 15.688C154.605 15.8 154.701 15.896 154.765 15.976L156.613 18.352L158.461 15.976C158.525 15.896 158.613 15.8 158.725 15.688C158.853 15.576 159.021 15.52 159.229 15.52H162.949C163.109 15.52 163.245 15.576 163.357 15.688C163.469 15.8 163.525 15.928 163.525 16.072C163.525 16.2 163.493 16.312 163.429 16.408L159.277 21.76Z" fill="#212121"/>
</svg>
